<svg id="File_formats" data-name="File formats" xmlns="http://www.w3.org/2000/svg" viewBox="0 0 80 80"><defs><style>.cls-1{fill:#f55fa3;}.cls-2{fill:#fff;}</style></defs><title>icon-format-music</title><g id="icon-format-music"><rect class="cls-1" x="4" y="4" width="72" height="72" rx="16"/><path class="cls-2" d="M27,22.76v24.7a3,3,0,0,1-2.45,2.95l-3.26.6A6.48,6.48,0,0,0,16,57.38h0a6.47,6.47,0,0,0,7.52,6.39l.77-.12A8,8,0,0,0,31,55.75V33.44a1,1,0,0,1,.86-1l21-2.94a1,1,0,0,1,1.14,1V43.75a3,3,0,0,1-2.45,3l-3.27.61A6.48,6.48,0,0,0,43,53.68v.09a6.48,6.48,0,0,0,7.52,6.39l.77-.13A8,8,0,0,0,58,52.14V19.27a2,2,0,0,0-2.26-2l-27,3.48A2,2,0,0,0,27,22.76Z"/></g></svg>